<?xml version="1.0" encoding="UTF-8"?>
<svg xmlns="http://www.w3.org/2000/svg" viewBox="0 0 300 300" role="img" aria-label="ZipperGen favicon">
<g transform="translate(40,0)">
<rect x="24.20" y="33.00" width="128.07" height="24.07" rx="4.00" fill="#14141A"></rect>
<rect x="165.55" y="33.00" width="30.25" height="24.07" rx="4.00" fill="#14141A"></rect>
<rect x="105.71" y="67.99" width="30.25" height="24.07" rx="4.00" fill="#14141A"></rect>
<rect x="149.24" y="67.99" width="30.25" height="24.07" rx="4.00" fill="#14141A"></rect>
<rect x="89.41" y="102.98" width="30.25" height="24.07" rx="4.00" fill="#14141A"></rect>
<rect x="132.94" y="102.98" width="30.25" height="24.07" rx="4.00" fill="#14141A"></rect>
<rect x="73.11" y="137.97" width="30.25" height="24.07" rx="4.00" fill="#14141A"></rect>
<rect x="116.64" y="137.97" width="30.25" height="24.07" rx="4.00" fill="#14141A"></rect>
<rect x="56.80" y="172.95" width="30.25" height="24.07" rx="4.00" fill="#14141A"></rect>
<rect x="100.34" y="172.95" width="30.25" height="24.07" rx="4.00" fill="#14141A"></rect>
<rect x="40.50" y="207.94" width="30.25" height="24.07" rx="4.00" fill="#14141A"></rect>
<rect x="84.04" y="207.94" width="30.25" height="24.07" rx="4.00" fill="#14141A"></rect>
<rect x="24.20" y="242.93" width="30.25" height="24.07" rx="4.00" fill="#14141A"></rect>
<rect x="67.73" y="242.93" width="128.07" height="24.07" rx="4.00" fill="#14141A"></rect>
</g>
</svg>