<?xml version="1.0" encoding="UTF-8"?>
<svg xmlns="http://www.w3.org/2000/svg" viewBox="0 0 605.92 107.00" role="img" aria-label="ZipperGen logo">
<g transform="translate(12,15)">
<rect x="0.00" y="0.00" width="46.21" height="7.41" rx="2.22" fill="#14141A"></rect>
<rect x="51.00" y="0.00" width="10.92" height="7.41" rx="2.22" fill="#14141A"></rect>
<rect x="29.41" y="10.77" width="10.92" height="7.41" rx="2.22" fill="#14141A"></rect>
<rect x="45.12" y="10.77" width="10.92" height="7.41" rx="2.22" fill="#14141A"></rect>
<rect x="23.53" y="21.53" width="10.92" height="7.41" rx="2.22" fill="#14141A"></rect>
<rect x="39.24" y="21.53" width="10.92" height="7.41" rx="2.22" fill="#14141A"></rect>
<rect x="17.65" y="32.30" width="10.92" height="7.41" rx="2.22" fill="#14141A"></rect>
<rect x="33.36" y="32.30" width="10.92" height="7.41" rx="2.22" fill="#14141A"></rect>
<rect x="11.76" y="43.06" width="10.92" height="7.41" rx="2.22" fill="#14141A"></rect>
<rect x="27.47" y="43.06" width="10.92" height="7.41" rx="2.22" fill="#14141A"></rect>
<rect x="5.88" y="53.83" width="10.92" height="7.41" rx="2.22" fill="#14141A"></rect>
<rect x="21.59" y="53.83" width="10.92" height="7.41" rx="2.22" fill="#14141A"></rect>
<rect x="0.00" y="64.59" width="10.92" height="7.41" rx="2.22" fill="#14141A"></rect>
<rect x="15.71" y="64.59" width="46.21" height="7.41" rx="2.22" fill="#14141A"></rect>
</g>
<text x="77.92" y="87.00" font-family="Space Grotesk, -apple-system, BlinkMacSystemFont, Inter, system-ui, sans-serif" font-weight="700" font-size="100" letter-spacing="-3.5" fill="#14141A">ipper<tspan fill="#14141A">Gen</tspan></text>
</svg>